<?xml version="1.0" encoding="utf-8"?>
<!-- Generator: Adobe Illustrator 16.0.0, SVG Export Plug-In . SVG Version: 6.00 Build 0)  -->
<!DOCTYPE svg PUBLIC "-//W3C//DTD SVG 1.1//EN" "http://www.w3.org/Graphics/SVG/1.1/DTD/svg11.dtd">
<svg version="1.1" id="Layer_1" xmlns="http://www.w3.org/2000/svg" xmlns:xlink="http://www.w3.org/1999/xlink" x="0px" y="0px"
	 width="600px" height="600px" viewBox="0 0 600 600" enable-background="new 0 0 600 600" xml:space="preserve">
<g>
	<path fill-rule="evenodd" clip-rule="evenodd" fill="#373737" d="M596.146,293.087c0.947,46.279-7.266,86.004-22.415,124.115
		c-11.813,29.712-27.951,56.673-51.953,79.042c-13.895,12.949-26.884,27.011-41.664,39.011
		c-21.994,17.856-45.937,32.896-72.57,42.733c-46.972,17.352-95.532,23.486-145.342,17.162
		c-39.143-4.969-74.662-20.18-108.814-39.329c-32.692-18.33-60.511-42.111-83.425-71.691
		c-19.424-25.074-34.603-52.465-45.628-82.261c-9.777-26.423-14.604-53.613-16.63-81.682c-2.093-29.004,1.274-57.242,6.922-85.507
		c5.105-25.547,14.474-49.598,26.143-72.598c6.684-13.175,15.1-25.584,24.354-37.423c11.238-14.377,23.219-28.03,36.355-40.528
		c16.389-15.591,34.376-29.216,54.2-40.463c18.616-10.562,37.954-19.242,58.345-25.523c14.307-4.407,28.899-7.439,43.776-9.773
		c22.958-3.603,45.932-3.651,68.905-2.768c14.263,0.547,28.439,3.371,42.372,6.919c18.576,4.732,36.889,10.513,54.267,18.43
		c12.99,5.918,25.787,12.627,37.505,21.091c8.579,6.197,17.93,11.294,25.811,18.513c5.015,4.594,10.008,9.402,15.205,13.558
		c7.933,6.344,14.121,14.015,20.734,21.398c14.154,15.803,26.079,33.205,36.922,51.446c11.161,18.781,19.535,38.706,25.358,59.632
		c4.14,14.876,7.794,29.905,9.787,45.327C596.224,273.98,595.799,286.022,596.146,293.087z M378.736,524.157
		c3.973,1.19,6.679-0.523,9.713-1.459c7.874-2.427,11.787-10.673,19.927-12.72c3.817-0.96,7.377-3.195,10.859-5.189
		c8.805-5.04,9.532-8.803,3.352-16.979c-1.39-1.838-3.167-3.428-4.938-4.926c-18.86-15.936-40.185-28.268-60.794-41.665
		c-31.281-20.335-64.095-17.635-95.255-2.678c-27.59,13.242-49.531,35.463-71.793,56.409c-5.939,5.589-4.748,10.413,2.013,14.979
		c9.651,6.52,21.409,8.862,30.803,15.99c1.998,1.516,5.193,2.592,8.372,2.487c9.38-0.308,18.194,2.041,26.529,6.31
		c4.33,2.218,9.928,4.11,13.685,2.884c8.057-2.631,15.365-1.049,22.993,0.34c5.768,1.05,11.995,3.886,17.343,1.499
		c10.687-4.768,21.659-4.653,32.802-4.437c3.921,0.078,7.832-0.528,10.894-2.728C362.524,527.042,370.873,525.626,378.736,524.157z
		 M393.24,168.008c0.631,11.916,1.496,23.417,3.585,34.831c4.522,24.697,18.188,43.933,37.725,58.386
		c16.333,12.083,34.524,21.359,54.479,26.941c12.178,3.407,24.233,7.096,36.774,8.861c7.486,1.053,9.063-0.002,9.593-7.691
		c1.192-17.341-1.555-34.265-6.655-50.791c-2.178-7.057-5.183-13.694-5.35-21.441c-0.118-5.479-0.221-12.21-7.654-14.591
		c-1.086-0.348-1.712-2.3-2.438-3.574c-3.481-6.116-6.118-12.557-7.591-19.473c-1.13-5.3-3.408-9.474-8.482-12.624
		c-6.927-4.3-12.646-10.779-14.794-18.545c-1.537-5.562-4.568-8.895-8.552-11.959c-3.519-2.707-7.505-4.798-11.134-7.375
		c-2.929-2.079-7.09-4.181-7.374-7.551c-0.552-6.549-5.193-8.818-9.708-10.346c-11.078-3.751-20.136-10.655-29.266-17.422
		c-5.208-3.861-8.562-1.99-11.534,2.299c-1.411,2.037-2.442,4.516-2.993,6.941C396.977,124.432,395.629,146.443,393.24,168.008z
		 M72.751,312.213c13.521,0.535,23.448-6.931,34.405-11.323c7.973-3.196,15.368-7.589,23.288-10.99
		c14.315-6.148,27.14-14.989,39.055-25.113c9.673-8.221,16.17-18.833,22.034-29.717c5.954-11.049,9.576-22.705,8.196-35.898
		c-1.631-15.586-1.586-31.356-3.997-46.89c-2.23-14.364-2.753-29.051-8.164-42.831c-2.558-6.51-6.136-8.56-12.771-5.543
		c-17.429,7.923-33.601,17.614-44.718,33.973c-2.605,3.835-5.92,6.858-10.341,9.074c-5.354,2.683-9.432,7.652-10.707,13.452
		c-1.438,6.547-4.282,12.305-8.872,16.486c-7.177,6.538-10.412,14.624-12.793,23.553c-1.57,5.886-2.741,12.167-7.261,16.692
		c-4.362,4.366-6.219,9.634-6.231,15.478c-0.014,6.883-0.849,13.823-3.625,19.821c-3.982,8.604-6.335,16.813-3.118,26.099
		c0.581,1.677,0.292,3.903-0.25,5.676c-1.761,5.753-1.604,11.749-2.505,17.605C63.122,309.978,65.347,312.214,72.751,312.213z
		 M348.208,301.248c-1.163-31.925-18.744-50.37-47.271-50.904c-27.688-0.519-48.843,22.168-49.157,50.89
		c-0.312,28.513,21.191,47.718,47.126,47.622C325.365,348.76,349.389,326.749,348.208,301.248z"/>
</g>
</svg>
